<?xml version="1.0" encoding="UTF-8"?>
<!-- Generator: visioncortex VTracer 0.6.4 -->
<svg version="1.1" xmlns="http://www.w3.org/2000/svg" width="160" height="160">
<path d="M0 0 C3.3 0 6.6 0 10 0 C10 26.4 10 52.8 10 80 C13.3 80 16.6 80 20 80 C20 83.3 20 86.6 20 90 C10.1 90 0.2 90 -10 90 C-10 86.7 -10 83.4 -10 80 C-6.7 80 -3.4 80 0 80 C0 60.2 0 40.4 0 20 C-3.3 20 -6.6 20 -10 20 C-10 16.7 -10 13.4 -10 10 C-6.7 10 -3.4 10 0 10 C0 6.7 0 3.4 0 0 Z " fill="#FFFFFF" transform="translate(70,70)"/>
</svg>
