<?xml version="1.0" encoding="UTF-8"?>
<!-- Generator: visioncortex VTracer 0.6.4 -->
<svg version="1.1" xmlns="http://www.w3.org/2000/svg" width="160" height="160">
<path d="M0 0 C6.6 0 13.2 0 20 0 C20 16.5 20 33 20 50 C26.6 50 33.2 50 40 50 C40 53.3 40 56.6 40 60 C33.4 60 26.8 60 20 60 C20 76.5 20 93 20 110 C16.7 110 13.4 110 10 110 C10 93.5 10 77 10 60 C-6.5 60 -23 60 -40 60 C-40 53.4 -40 46.8 -40 40 C-36.7 40 -33.4 40 -30 40 C-30 43.3 -30 46.6 -30 50 C-16.8 50 -3.6 50 10 50 C10 36.8 10 23.6 10 10 C6.7 10 3.4 10 0 10 C0 6.7 0 3.4 0 0 Z " fill="#FFFFFF" transform="translate(70,50)"/>
<path d="M0 0 C3.3 0 6.6 0 10 0 C10 3.3 10 6.6 10 10 C6.7 10 3.4 10 0 10 C0 6.7 0 3.4 0 0 Z " fill="#FFFFFF" transform="translate(40,80)"/>
<path d="M0 0 C3.3 0 6.6 0 10 0 C10 3.3 10 6.6 10 10 C6.7 10 3.4 10 0 10 C0 6.7 0 3.4 0 0 Z " fill="#FFFFFF" transform="translate(50,70)"/>
<path d="M0 0 C3.3 0 6.6 0 10 0 C10 3.3 10 6.6 10 10 C6.7 10 3.4 10 0 10 C0 6.7 0 3.4 0 0 Z " fill="#FFFFFF" transform="translate(60,60)"/>
</svg>
