<?xml version="1.0" encoding="UTF-8"?>
<!-- Generator: visioncortex VTracer 0.6.4 -->
<svg version="1.1" xmlns="http://www.w3.org/2000/svg" width="160" height="160">
<path d="M0 0 C19.8 0 39.6 0 60 0 C60 3.3 60 6.6 60 10 C43.5 10 27 10 10 10 C10 16.6 10 23.2 10 30 C23.2 30 36.4 30 50 30 C50 33.3 50 36.6 50 40 C33.5 40 17 40 0 40 C0 26.8 0 13.6 0 0 Z " fill="#FFFFFF" transform="translate(40,80)"/>
<path d="M0 0 C3.3 0 6.6 0 10 0 C10 13.2 10 26.4 10 40 C-9.8 40 -29.6 40 -50 40 C-50 36.7 -50 33.4 -50 30 C-33.5 30 -17 30 0 30 C0 20.1 0 10.2 0 0 Z " fill="#FFFFFF" transform="translate(90,120)"/>
<path d="M0 0 C3.3 0 6.6 0 10 0 C10 3.3 10 6.6 10 10 C6.7 10 3.4 10 0 10 C0 6.7 0 3.4 0 0 Z " fill="#FFFFFF" transform="translate(30,140)"/>
</svg>
