<?xml version="1.0" encoding="UTF-8"?>
<!-- Generator: visioncortex VTracer 0.6.4 -->
<svg version="1.1" xmlns="http://www.w3.org/2000/svg" width="160" height="160">
<path d="M0 0 C19.8 0 39.6 0 60 0 C60 13.2 60 26.4 60 40 C66.6 40 73.2 40 80 40 C80 43.3 80 46.6 80 50 C73.4 50 66.8 50 60 50 C60 63.2 60 76.4 60 90 C56.7 90 53.4 90 50 90 C50 76.8 50 63.6 50 50 C43.4 50 36.8 50 30 50 C30 46.7 30 43.4 30 40 C36.6 40 43.2 40 50 40 C50 30.1 50 20.2 50 10 C33.5 10 17 10 0 10 C0 6.7 0 3.4 0 0 Z " fill="#FFFFFF" transform="translate(40,70)"/>
</svg>
