<?xml version="1.0" encoding="UTF-8"?>
<!-- Generator: visioncortex VTracer 0.6.4 -->
<svg version="1.1" xmlns="http://www.w3.org/2000/svg" width="160" height="160">
<path d="M0 0 C3.3 0 6.6 0 10 0 C10 29.7 10 59.4 10 90 C6.7 90 3.4 90 0 90 C0 76.8 0 63.6 0 50 C-13.2 50 -26.4 50 -40 50 C-40 46.7 -40 43.4 -40 40 C-26.8 40 -13.6 40 0 40 C0 26.8 0 13.6 0 0 Z " fill="#FFFFFF" transform="translate(100,60)"/>
<path d="M0 0 C16.5 0 33 0 50 0 C50 3.3 50 6.6 50 10 C33.5 10 17 10 0 10 C0 6.7 0 3.4 0 0 Z " fill="#FFFFFF" transform="translate(50,150)"/>
<path d="M0 0 C3.3 0 6.6 0 10 0 C10 13.2 10 26.4 10 40 C6.7 40 3.4 40 0 40 C0 26.8 0 13.6 0 0 Z " fill="#FFFFFF" transform="translate(50,60)"/>
<path d="M0 0 C13.2 0 26.4 0 40 0 C40 3.3 40 6.6 40 10 C26.8 10 13.6 10 0 10 C0 6.7 0 3.4 0 0 Z " fill="#FFFFFF" transform="translate(60,50)"/>
</svg>
