<?xml version="1.0" encoding="UTF-8"?>
<!-- Generator: visioncortex VTracer 0.6.4 -->
<svg version="1.1" xmlns="http://www.w3.org/2000/svg" width="160" height="160">
<path d="M0 0 C6.6 0 13.2 0 20 0 C20 3.3 20 6.6 20 10 C26.6 10 33.2 10 40 10 C40 6.7 40 3.4 40 0 C46.6 0 53.2 0 60 0 C60 3.3 60 6.6 60 10 C63.3 10 66.6 10 70 10 C70 13.3 70 16.6 70 20 C66.7 20 63.4 20 60 20 C60 23.3 60 26.6 60 30 C56.7 30 53.4 30 50 30 C50 33.3 50 36.6 50 40 C53.3 40 56.6 40 60 40 C60 43.3 60 46.6 60 50 C63.3 50 66.6 50 70 50 C70 56.6 70 63.2 70 70 C66.7 70 63.4 70 60 70 C60 73.3 60 76.6 60 80 C53.4 80 46.8 80 40 80 C40 76.7 40 73.4 40 70 C33.4 70 26.8 70 20 70 C20 73.3 20 76.6 20 80 C13.4 80 6.8 80 0 80 C0 76.7 0 73.4 0 70 C-3.3 70 -6.6 70 -10 70 C-10 50.2 -10 30.4 -10 10 C-6.7 10 -3.4 10 0 10 C0 6.7 0 3.4 0 0 Z " fill="#000000" transform="translate(50,80)"/>
<path d="M0 0 C9.9 0 19.8 0 30 0 C30 3.3 30 6.6 30 10 C26.7 10 23.4 10 20 10 C20 13.3 20 16.6 20 20 C16.7 20 13.4 20 10 20 C10 23.3 10 26.6 10 30 C6.7 30 3.4 30 0 30 C0 20.1 0 10.2 0 0 Z " fill="#000000" transform="translate(80,40)"/>
</svg>
