<?xml version="1.0" encoding="UTF-8"?>
<!-- Generator: visioncortex VTracer 0.6.4 -->
<svg version="1.1" xmlns="http://www.w3.org/2000/svg" width="160" height="160">
<title>CSS3</title>
<path d="M0 0 C33 0 66 0 100 0 C100 26.4 100 52.8 100 80 C96.7 80 93.4 80 90 80 C90 83.3 90 86.6 90 90 C86.7 90 83.4 90 80 90 C80 93.3 80 96.6 80 100 C60.2 100 40.4 100 20 100 C20 96.7 20 93.4 20 90 C16.7 90 13.4 90 10 90 C10 86.7 10 83.4 10 80 C6.7 80 3.4 80 0 80 C0 53.6 0 27.2 0 0 Z " fill="#1471B5" transform="translate(20,60)"/>
<path d="M0 0 C23.1 0 46.2 0 70 0 C70 26.4 70 52.8 70 80 C60.1 80 50.2 80 40 80 C40 76.7 40 73.4 40 70 C26.8 70 13.6 70 0 70 C0 66.7 0 63.4 0 60 C13.2 60 26.4 60 40 60 C40 53.4 40 46.8 40 40 C26.8 40 13.6 40 0 40 C0 36.7 0 33.4 0 30 C13.2 30 26.4 30 40 30 C40 23.4 40 16.8 40 10 C26.8 10 13.6 10 0 10 C0 6.7 0 3.4 0 0 Z " fill="#32A8DB" transform="translate(40,70)"/>
<path d="M0 0 C13.2 0 26.4 0 40 0 C40 3.3 40 6.6 40 10 C30.1 10 20.2 10 10 10 C10 13.3 10 16.6 10 20 C19.9 20 29.8 20 40 20 C40 29.9 40 39.8 40 50 C26.8 50 13.6 50 0 50 C0 46.7 0 43.4 0 40 C9.9 40 19.8 40 30 40 C30 36.7 30 33.4 30 30 C20.1 30 10.2 30 0 30 C0 20.1 0 10.2 0 0 Z " fill="#fff" transform="translate(100,0)"/>
<path d="M0 0 C13.2 0 26.4 0 40 0 C40 3.3 40 6.6 40 10 C30.1 10 20.2 10 10 10 C10 13.3 10 16.6 10 20 C19.9 20 29.8 20 40 20 C40 29.9 40 39.8 40 50 C26.8 50 13.6 50 0 50 C0 46.7 0 43.4 0 40 C9.9 40 19.8 40 30 40 C30 36.7 30 33.4 30 30 C20.1 30 10.2 30 0 30 C0 20.1 0 10.2 0 0 Z " fill="#fff" transform="translate(50,0)"/>
<path d="M0 0 C9.9 0 19.8 0 30 0 C30 3.3 30 6.6 30 10 C23.4 10 16.8 10 10 10 C10 19.9 10 29.8 10 40 C16.6 40 23.2 40 30 40 C30 43.3 30 46.6 30 50 C20.1 50 10.2 50 0 50 C0 33.5 0 17 0 0 Z " fill="#ffffff" transform="translate(10,0)"/>
<path d="M0 0 C13.2 0 26.4 0 40 0 C40 3.3 40 6.6 40 10 C26.8 10 13.6 10 0 10 C0 6.7 0 3.4 0 0 Z " fill="#ECEBEA" transform="translate(40,130)"/>
<path d="M0 0 C13.2 0 26.4 0 40 0 C40 3.3 40 6.6 40 10 C26.8 10 13.6 10 0 10 C0 6.7 0 3.4 0 0 Z " fill="#ECEBEA" transform="translate(40,100)"/>
<path d="M0 0 C13.2 0 26.4 0 40 0 C40 3.3 40 6.6 40 10 C26.8 10 13.6 10 0 10 C0 6.7 0 3.4 0 0 Z " fill="#ECEBEA" transform="translate(40,70)"/>
<path d="M0 0 C3.3 0 6.6 0 10 0 C10 6.6 10 13.2 10 20 C6.7 20 3.4 20 0 20 C0 13.4 0 6.8 0 0 Z " fill="#FFFFFF" transform="translate(80,110)"/>
<path d="M0 0 C3.3 0 6.6 0 10 0 C10 6.6 10 13.2 10 20 C6.7 20 3.4 20 0 20 C0 13.4 0 6.8 0 0 Z " fill="#FFFFFF" transform="translate(80,80)"/>
<path d="M0 0 C3.3 0 6.6 0 10 0 C10 3.3 10 6.6 10 10 C6.7 10 3.4 10 0 10 C0 6.7 0 3.4 0 0 Z " fill="#1471B5" transform="translate(100,140)"/>
</svg>
