<?xml version="1.0" encoding="UTF-8"?>
<!-- Generator: visioncortex VTracer 0.6.4 -->
<svg version="1.1" xmlns="http://www.w3.org/2000/svg" width="160" height="160">
<path d="M0 0 C9.9 0 19.8 0 30 0 C30 3.3 30 6.6 30 10 C33.3 10 36.6 10 40 10 C40 16.6 40 23.2 40 30 C36.7 30 33.4 30 30 30 C30 33.3 30 36.6 30 40 C26.7 40 23.4 40 20 40 C20 69.7 20 99.4 20 130 C-3.1 130 -26.2 130 -50 130 C-50 133.3 -50 136.6 -50 140 C-53.3 140 -56.6 140 -60 140 C-60 143.3 -60 146.6 -60 150 C-73.2 150 -86.4 150 -100 150 C-100 146.7 -100 143.4 -100 140 C-103.3 140 -106.6 140 -110 140 C-110 130.1 -110 120.2 -110 110 C-106.7 110 -103.4 110 -100 110 C-100 106.7 -100 103.4 -100 100 C-103.3 100 -106.6 100 -110 100 C-110 90.1 -110 80.2 -110 70 C-106.7 70 -103.4 70 -100 70 C-100 66.7 -100 63.4 -100 60 C-103.3 60 -106.6 60 -110 60 C-110 50.1 -110 40.2 -110 30 C-106.7 30 -103.4 30 -100 30 C-100 26.7 -100 23.4 -100 20 C-86.8 20 -73.6 20 -60 20 C-60 23.3 -60 26.6 -60 30 C-56.7 30 -53.4 30 -50 30 C-50 39.9 -50 49.8 -50 60 C-30.2 60 -10.4 60 10 60 C10 53.4 10 46.8 10 40 C6.7 40 3.4 40 0 40 C0 36.7 0 33.4 0 30 C-3.3 30 -6.6 30 -10 30 C-10 23.4 -10 16.8 -10 10 C-6.7 10 -3.4 10 0 10 C0 6.7 0 3.4 0 0 Z M-50 70 C-50 73.3 -50 76.6 -50 80 C-30.2 80 -10.4 80 10 80 C10 76.7 10 73.4 10 70 C-9.8 70 -29.6 70 -50 70 Z M-50 90 C-50 93.3 -50 96.6 -50 100 C-53.3 100 -56.6 100 -60 100 C-60 103.3 -60 106.6 -60 110 C-56.7 110 -53.4 110 -50 110 C-50 113.3 -50 116.6 -50 120 C-30.2 120 -10.4 120 10 120 C10 110.1 10 100.2 10 90 C-9.8 90 -29.6 90 -50 90 Z " fill="#B3FFA3" transform="translate(120,0)"/>
<path d="M0 0 C13.2 0 26.4 0 40 0 C40 3.3 40 6.6 40 10 C33.4 10 26.8 10 20 10 C20 13.3 20 16.6 20 20 C23.3 20 26.6 20 30 20 C30 23.3 30 26.6 30 30 C26.7 30 23.4 30 20 30 C20 33.3 20 36.6 20 40 C26.6 40 33.2 40 40 40 C40 43.3 40 46.6 40 50 C33.4 50 26.8 50 20 50 C20 53.3 20 56.6 20 60 C23.3 60 26.6 60 30 60 C30 63.3 30 66.6 30 70 C26.7 70 23.4 70 20 70 C20 73.3 20 76.6 20 80 C26.6 80 33.2 80 40 80 C40 83.3 40 86.6 40 90 C33.4 90 26.8 90 20 90 C20 93.3 20 96.6 20 100 C23.3 100 26.6 100 30 100 C30 103.3 30 106.6 30 110 C26.7 110 23.4 110 20 110 C20 113.3 20 116.6 20 120 C26.6 120 33.2 120 40 120 C40 123.3 40 126.6 40 130 C26.8 130 13.6 130 0 130 C0 126.7 0 123.4 0 120 C-3.3 120 -6.6 120 -10 120 C-10 110.1 -10 100.2 -10 90 C-6.7 90 -3.4 90 0 90 C0 86.7 0 83.4 0 80 C-3.3 80 -6.6 80 -10 80 C-10 70.1 -10 60.2 -10 50 C-6.7 50 -3.4 50 0 50 C0 46.7 0 43.4 0 40 C-3.3 40 -6.6 40 -10 40 C-10 30.1 -10 20.2 -10 10 C-6.7 10 -3.4 10 0 10 C0 6.7 0 3.4 0 0 Z " fill="#000000" transform="translate(20,20)"/>
<path d="M0 0 C9.9 0 19.8 0 30 0 C30 3.3 30 6.6 30 10 C33.3 10 36.6 10 40 10 C40 16.6 40 23.2 40 30 C36.7 30 33.4 30 30 30 C30 33.3 30 36.6 30 40 C20.1 40 10.2 40 0 40 C0 36.7 0 33.4 0 30 C-3.3 30 -6.6 30 -10 30 C-10 23.4 -10 16.8 -10 10 C-6.7 10 -3.4 10 0 10 C0 6.7 0 3.4 0 0 Z " fill="#000000" transform="translate(120,0)"/>
<path d="M0 0 C6.6 0 13.2 0 20 0 C20 9.9 20 19.8 20 30 C13.4 30 6.8 30 0 30 C0 26.7 0 23.4 0 20 C3.3 20 6.6 20 10 20 C10 16.7 10 13.4 10 10 C6.7 10 3.4 10 0 10 C0 6.7 0 3.4 0 0 Z " fill="#FFFFFF" transform="translate(40,110)"/>
<path d="M0 0 C6.6 0 13.2 0 20 0 C20 9.9 20 19.8 20 30 C13.4 30 6.8 30 0 30 C0 26.7 0 23.4 0 20 C3.3 20 6.6 20 10 20 C10 16.7 10 13.4 10 10 C6.7 10 3.4 10 0 10 C0 6.7 0 3.4 0 0 Z " fill="#FFFFFF" transform="translate(40,70)"/>
<path d="M0 0 C6.6 0 13.2 0 20 0 C20 9.9 20 19.8 20 30 C13.4 30 6.8 30 0 30 C0 26.7 0 23.4 0 20 C3.3 20 6.6 20 10 20 C10 16.7 10 13.4 10 10 C6.7 10 3.4 10 0 10 C0 6.7 0 3.4 0 0 Z " fill="#FFFFFF" transform="translate(40,30)"/>
<path d="M0 0 C3.3 0 6.6 0 10 0 C10 9.9 10 19.8 10 30 C6.7 30 3.4 30 0 30 C0 20.1 0 10.2 0 0 Z " fill="#000000" transform="translate(60,110)"/>
<path d="M0 0 C3.3 0 6.6 0 10 0 C10 9.9 10 19.8 10 30 C6.7 30 3.4 30 0 30 C0 20.1 0 10.2 0 0 Z " fill="#000000" transform="translate(60,70)"/>
<path d="M0 0 C3.3 0 6.6 0 10 0 C10 9.9 10 19.8 10 30 C6.7 30 3.4 30 0 30 C0 20.1 0 10.2 0 0 Z " fill="#000000" transform="translate(60,30)"/>
<path d="M0 0 C6.6 0 13.2 0 20 0 C20 3.3 20 6.6 20 10 C16.7 10 13.4 10 10 10 C10 13.3 10 16.6 10 20 C6.7 20 3.4 20 0 20 C0 13.4 0 6.8 0 0 Z " fill="#FFFFFF" transform="translate(140,20)"/>
<path d="M0 0 C6.6 0 13.2 0 20 0 C20 6.6 20 13.2 20 20 C16.7 20 13.4 20 10 20 C10 16.7 10 13.4 10 10 C6.7 10 3.4 10 0 10 C0 6.7 0 3.4 0 0 Z " fill="#FFFFFF" transform="translate(110,20)"/>
<path d="M0 0 C3.3 0 6.6 0 10 0 C10 3.3 10 6.6 10 10 C6.7 10 3.4 10 0 10 C0 6.7 0 3.4 0 0 Z " fill="#FFFFFF" transform="translate(20,130)"/>
<path d="M0 0 C3.3 0 6.6 0 10 0 C10 3.3 10 6.6 10 10 C6.7 10 3.4 10 0 10 C0 6.7 0 3.4 0 0 Z " fill="#FFFFFF" transform="translate(20,110)"/>
<path d="M0 0 C3.3 0 6.6 0 10 0 C10 3.3 10 6.6 10 10 C6.7 10 3.4 10 0 10 C0 6.7 0 3.4 0 0 Z " fill="#FFFFFF" transform="translate(20,90)"/>
<path d="M0 0 C3.3 0 6.6 0 10 0 C10 3.3 10 6.6 10 10 C6.7 10 3.4 10 0 10 C0 6.7 0 3.4 0 0 Z " fill="#FFFFFF" transform="translate(20,70)"/>
<path d="M0 0 C3.3 0 6.6 0 10 0 C10 3.3 10 6.6 10 10 C6.7 10 3.4 10 0 10 C0 6.7 0 3.4 0 0 Z " fill="#FFFFFF" transform="translate(20,50)"/>
<path d="M0 0 C3.3 0 6.6 0 10 0 C10 3.3 10 6.6 10 10 C6.7 10 3.4 10 0 10 C0 6.7 0 3.4 0 0 Z " fill="#FFFFFF" transform="translate(20,30)"/>
<path d="M0 0 C3.3 0 6.6 0 10 0 C10 3.3 10 6.6 10 10 C6.7 10 3.4 10 0 10 C0 6.7 0 3.4 0 0 Z " fill="#FFFFFF" transform="translate(140,0)"/>
<path d="M0 0 C3.3 0 6.6 0 10 0 C10 3.3 10 6.6 10 10 C6.7 10 3.4 10 0 10 C0 6.7 0 3.4 0 0 Z " fill="#FFFFFF" transform="translate(120,0)"/>
</svg>
