<?xml version="1.0" encoding="UTF-8"?>
<!-- Generator: visioncortex VTracer 0.6.4 -->
<svg version="1.1" xmlns="http://www.w3.org/2000/svg" width="160" height="160">
<path d="M0 0 C3.3 0 6.6 0 10 0 C10 13.2 10 26.4 10 40 C19.9 40 29.8 40 40 40 C40 43.3 40 46.6 40 50 C36.7 50 33.4 50 30 50 C30 53.3 30 56.6 30 60 C26.7 60 23.4 60 20 60 C20 63.3 20 66.6 20 70 C16.7 70 13.4 70 10 70 C10 73.3 10 76.6 10 80 C6.7 80 3.4 80 0 80 C0 76.7 0 73.4 0 70 C-3.3 70 -6.6 70 -10 70 C-10 66.7 -10 63.4 -10 60 C-13.3 60 -16.6 60 -20 60 C-20 56.7 -20 53.4 -20 50 C-23.3 50 -26.6 50 -30 50 C-30 46.7 -30 43.4 -30 40 C-20.1 40 -10.2 40 0 40 C0 26.8 0 13.6 0 0 Z " fill="#FFFFFF" transform="translate(80,50)"/>
<path d="M0 0 C36.3 0 72.6 0 110 0 C110 3.3 110 6.6 110 10 C73.7 10 37.4 10 0 10 C0 6.7 0 3.4 0 0 Z " fill="#FFFFFF" transform="translate(30,150)"/>
</svg>
