<?xml version="1.0" encoding="UTF-8"?>
<!-- Generator: visioncortex VTracer 0.6.4 -->
<svg version="1.1" xmlns="http://www.w3.org/2000/svg" width="160" height="160">
<path d="M0 0 C33 0 66 0 100 0 C100 13.2 100 26.4 100 40 C67 40 34 40 0 40 C0 26.8 0 13.6 0 0 Z M10 10 C10 16.6 10 23.2 10 30 C36.4 30 62.8 30 90 30 C90 23.4 90 16.8 90 10 C86.7 10 83.4 10 80 10 C80 13.3 80 16.6 80 20 C76.7 20 73.4 20 70 20 C70 16.7 70 13.4 70 10 C50.2 10 30.4 10 10 10 Z " fill="#FFFFFF" transform="translate(30,10)"/>
<path d="M0 0 C3.3 0 6.6 0 10 0 C10 3.3 10 6.6 10 10 C13.3 10 16.6 10 20 10 C20 13.3 20 16.6 20 20 C16.7 20 13.4 20 10 20 C10 39.8 10 59.6 10 80 C6.7 80 3.4 80 0 80 C0 60.2 0 40.4 0 20 C-3.3 20 -6.6 20 -10 20 C-10 16.7 -10 13.4 -10 10 C-6.7 10 -3.4 10 0 10 C0 6.7 0 3.4 0 0 Z " fill="#FFFFFF" transform="translate(80,60)"/>
<path d="M0 0 C3.3 0 6.6 0 10 0 C10 3.3 10 6.6 10 10 C6.7 10 3.4 10 0 10 C0 6.7 0 3.4 0 0 Z " fill="#FFFFFF" transform="translate(100,80)"/>
<path d="M0 0 C3.3 0 6.6 0 10 0 C10 3.3 10 6.6 10 10 C6.7 10 3.4 10 0 10 C0 6.7 0 3.4 0 0 Z " fill="#FFFFFF" transform="translate(60,80)"/>
</svg>
