<svg id="svg" version="1.1" xmlns="http://www.w3.org/2000/svg" xmlns:xlink="http://www.w3.org/1999/xlink" width="400" height="400" viewBox="0, 0, 400,400"><g id="svgg"><path id="path0" d="M223.600 11.794 L 223.600 23.588 211.300 23.694 L 199.000 23.800 198.894 36.294 L 198.789 48.789 186.294 48.894 L 173.800 49.000 173.694 61.294 L 173.588 73.588 161.294 73.694 L 149.000 73.800 149.000 100.000 L 149.000 126.200 161.300 126.306 L 173.600 126.412 173.600 187.606 L 173.600 248.800 161.200 248.800 L 148.800 248.800 148.800 275.000 L 148.800 301.200 161.194 301.200 L 173.589 301.200 173.694 313.700 L 173.800 326.200 186.300 326.306 L 198.800 326.411 198.800 338.806 L 198.800 351.200 211.194 351.200 L 223.589 351.200 223.694 363.700 L 223.800 376.200 237.400 376.200 L 251.000 376.200 251.106 363.706 L 251.211 351.211 263.706 351.106 L 276.200 351.000 276.306 338.706 L 276.412 326.412 288.706 326.306 L 301.000 326.200 301.106 313.706 L 301.211 301.211 313.706 301.106 L 326.200 301.000 326.200 275.000 L 326.200 249.000 313.700 248.894 L 301.200 248.789 301.200 187.600 L 301.200 126.411 313.700 126.306 L 326.200 126.200 326.200 100.000 L 326.200 73.800 313.700 73.694 L 301.200 73.589 301.200 61.194 L 301.200 48.800 288.806 48.800 L 276.411 48.800 276.306 36.300 L 276.200 23.800 263.700 23.694 L 251.200 23.589 251.200 11.794 L 251.200 0.000 237.400 0.000 L 223.600 0.000 223.600 11.794 M250.557 25.033 C 250.691 25.381,250.800 30.961,250.800 37.433 L 250.800 49.200 262.567 49.200 C 269.039 49.200,274.619 49.309,274.967 49.443 C 275.525 49.657,275.600 51.126,275.600 61.843 C 275.600 68.529,275.645 74.038,275.700 74.085 C 275.755 74.132,281.380 74.267,288.200 74.385 L 300.600 74.600 300.706 86.962 C 300.801 98.041,300.742 99.401,300.144 100.062 C 299.358 100.930,176.784 101.248,175.174 100.386 C 174.434 99.990,174.400 99.418,174.400 87.192 L 174.400 74.412 186.700 74.306 L 199.000 74.200 199.106 62.144 C 199.188 52.750,199.328 49.992,199.739 49.650 C 200.089 49.360,204.300 49.176,212.234 49.106 L 224.200 49.000 224.301 37.200 C 224.357 30.710,224.486 25.175,224.589 24.900 C 224.902 24.057,250.233 24.187,250.557 25.033 M275.280 124.720 C 276.049 125.489,276.049 224.511,275.280 225.280 C 274.427 226.134,201.435 226.246,200.138 225.396 L 199.197 224.780 199.298 174.902 L 199.400 125.024 200.400 124.514 C 201.879 123.761,274.521 123.960,275.280 124.720 M299.966 274.700 C 300.809 275.391,300.818 275.553,300.710 288.000 L 300.600 300.600 288.300 300.706 L 276.000 300.812 276.000 312.926 C 276.000 321.815,275.872 325.168,275.520 325.520 C 275.168 325.872,271.815 326.000,262.926 326.000 L 250.812 326.000 250.706 338.300 L 250.600 350.600 237.400 350.600 L 224.200 350.600 224.094 338.306 L 223.988 326.012 211.694 325.906 L 199.400 325.800 199.200 313.400 L 199.000 301.000 186.600 300.800 L 174.200 300.600 174.094 288.106 C 173.992 276.041,174.016 275.584,174.794 274.806 C 175.975 273.625,298.528 273.522,299.966 274.700 " stroke="none" fill="#fcfcfc" fill-rule="evenodd"></path><path id="path1" d="M225.680 25.680 C 225.329 26.031,225.200 29.293,225.200 37.856 C 225.200 46.774,225.081 49.630,224.700 49.876 C 224.425 50.054,218.890 50.290,212.400 50.400 L 200.600 50.600 200.494 62.243 C 200.397 72.860,200.325 73.944,199.669 74.537 C 199.046 75.101,197.389 75.202,187.175 75.294 L 175.400 75.400 175.294 87.152 C 175.219 95.489,175.320 99.063,175.643 99.452 C 176.456 100.432,298.449 100.251,299.338 99.269 C 300.188 98.330,300.356 76.516,299.520 75.680 C 299.169 75.329,295.985 75.200,287.694 75.200 C 280.637 75.200,276.055 75.043,275.574 74.786 C 274.836 74.391,274.800 73.832,274.800 62.866 C 274.800 54.450,274.671 51.231,274.320 50.880 C 273.969 50.529,270.760 50.400,262.382 50.400 C 247.945 50.400,249.600 52.064,249.600 37.549 C 249.600 29.224,249.471 26.031,249.120 25.680 C 248.435 24.995,226.365 24.995,225.680 25.680 M200.482 125.678 C 199.727 126.433,199.787 223.726,200.544 224.353 C 200.940 224.682,211.018 224.777,237.844 224.702 L 274.600 224.600 274.600 175.000 L 274.600 125.400 237.782 125.298 C 209.477 125.219,200.853 125.307,200.482 125.678 M175.467 275.467 C 174.821 276.113,175.173 299.504,175.833 299.757 C 176.181 299.891,181.545 300.000,187.753 300.000 C 195.998 300.000,199.169 300.129,199.520 300.480 C 199.871 300.831,200.000 304.002,200.000 312.247 C 200.000 318.455,200.109 323.819,200.243 324.167 C 200.457 324.724,201.885 324.800,212.181 324.800 C 223.003 324.800,223.925 324.855,224.538 325.531 C 225.122 326.177,225.200 327.632,225.200 337.889 C 225.200 348.121,225.276 349.544,225.833 349.757 C 227.109 350.247,249.012 350.028,249.520 349.520 C 249.871 349.169,250.000 345.907,250.000 337.344 C 250.000 328.426,250.119 325.570,250.500 325.324 C 250.775 325.146,256.310 324.910,262.800 324.800 L 274.600 324.600 274.800 312.800 C 274.910 306.310,275.146 300.775,275.324 300.500 C 275.570 300.119,278.426 300.000,287.344 300.000 C 295.907 300.000,299.169 299.871,299.520 299.520 C 299.871 299.169,300.000 295.964,300.000 287.600 C 300.000 279.236,299.871 276.031,299.520 275.680 C 298.996 275.156,175.989 274.944,175.467 275.467 " stroke="none" fill="#dc1a0a" fill-rule="evenodd"></path><path id="path2" d="" stroke="none" fill="#dc100bc" fill-rule="evenodd"></path><path id="path3" d="" stroke="none" fill="#dc100bc" fill-rule="evenodd"></path><path id="path4" d="" stroke="none" fill="#dc100bc" fill-rule="evenodd"></path></g></svg>