<?xml version="1.0" encoding="UTF-8"?>
<!-- Generator: visioncortex VTracer 0.6.4 -->
<svg version="1.1" xmlns="http://www.w3.org/2000/svg" width="160" height="160">
<path d="M0 0 C23.1 0 46.2 0 70 0 C70 3.3 70 6.6 70 10 C73.3 10 76.6 10 80 10 C80 13.3 80 16.6 80 20 C83.3 20 86.6 20 90 20 C90 46.4 90 72.8 90 100 C86.7 100 83.4 100 80 100 C80 103.3 80 106.6 80 110 C76.7 110 73.4 110 70 110 C70 113.3 70 116.6 70 120 C46.9 120 23.8 120 0 120 C0 116.7 0 113.4 0 110 C-3.3 110 -6.6 110 -10 110 C-10 106.7 -10 103.4 -10 100 C-13.3 100 -16.6 100 -20 100 C-20 73.6 -20 47.2 -20 20 C-16.7 20 -13.4 20 -10 20 C-10 16.7 -10 13.4 -10 10 C-6.7 10 -3.4 10 0 10 C0 6.7 0 3.4 0 0 Z " fill="#FFFFFF" transform="translate(40,40)"/>
<path d="M0 0 C3.3 0 6.6 0 10 0 C10 3.3 10 6.6 10 10 C19.9 10 29.8 10 40 10 C40 6.7 40 3.4 40 0 C43.3 0 46.6 0 50 0 C50 6.6 50 13.2 50 20 C53.3 20 56.6 20 60 20 C60 29.9 60 39.8 60 50 C56.7 50 53.4 50 50 50 C50 53.3 50 56.6 50 60 C46.7 60 43.4 60 40 60 C40 73.2 40 86.4 40 100 C43.3 100 46.6 100 50 100 C50 103.3 50 106.6 50 110 C33.5 110 17 110 0 110 C0 106.7 0 103.4 0 100 C3.3 100 6.6 100 10 100 C10 96.7 10 93.4 10 90 C3.4 90 -3.2 90 -10 90 C-10 86.7 -10 83.4 -10 80 C-3.4 80 3.2 80 10 80 C10 73.4 10 66.8 10 60 C6.7 60 3.4 60 0 60 C0 56.7 0 53.4 0 50 C-3.3 50 -6.6 50 -10 50 C-10 40.1 -10 30.2 -10 20 C-6.7 20 -3.4 20 0 20 C0 13.4 0 6.8 0 0 Z " fill="#000000" transform="translate(50,50)"/>
<path d="M0 0 C3.3 0 6.6 0 10 0 C10 6.6 10 13.2 10 20 C6.7 20 3.4 20 0 20 C0 13.4 0 6.8 0 0 Z " fill="#000000" transform="translate(30,110)"/>
</svg>
