<?xml version="1.0" encoding="UTF-8"?>
<!-- Generator: visioncortex VTracer 0.6.4 -->
<svg version="1.1" xmlns="http://www.w3.org/2000/svg" width="160" height="160">
<path d="M0 0 C39.6 0 79.2 0 120 0 C120 3.3 120 6.6 120 10 C123.3 10 126.6 10 130 10 C130 52.9 130 95.8 130 140 C126.7 140 123.4 140 120 140 C120 143.3 120 146.6 120 150 C80.4 150 40.8 150 0 150 C0 146.7 0 143.4 0 140 C-3.3 140 -6.6 140 -10 140 C-10 97.1 -10 54.2 -10 10 C-6.7 10 -3.4 10 0 10 C0 6.7 0 3.4 0 0 Z " fill="#FFFFFF" transform="translate(20,10)"/>
<path d="M0 0 C13.2 0 26.4 0 40 0 C40 16.5 40 33 40 50 C20.2 50 0.4 50 -20 50 C-20 46.7 -20 43.4 -20 40 C-3.5 40 13 40 30 40 C30 30.1 30 20.2 30 10 C20.1 10 10.2 10 0 10 C0 6.7 0 3.4 0 0 Z " fill="#4285F4" transform="translate(70,60)"/>
<path d="M0 0 C3.3 0 6.6 0 10 0 C10 19.8 10 39.6 10 60 C6.7 60 3.4 60 0 60 C0 40.2 0 20.4 0 0 Z " fill="#FBBC05" transform="translate(40,40)"/>
<path d="M0 0 C19.8 0 39.6 0 60 0 C60 3.3 60 6.6 60 10 C40.2 10 20.4 10 0 10 C0 6.7 0 3.4 0 0 Z " fill="#EA4335" transform="translate(50,30)"/>
<path d="M0 0 C6.6 0 13.2 0 20 0 C20 3.3 20 6.6 20 10 C13.4 10 6.8 10 0 10 C0 6.7 0 3.4 0 0 Z " fill="#34A853" transform="translate(50,100)"/>
<path d="M0 0 C3.3 0 6.6 0 10 0 C10 6.6 10 13.2 10 20 C6.7 20 3.4 20 0 20 C0 13.4 0 6.8 0 0 Z " fill="#34A853" transform="translate(40,80)"/>
</svg>
