<?xml version="1.0" encoding="UTF-8"?>
<!-- Generator: visioncortex VTracer 0.6.4 -->
<svg version="1.1" xmlns="http://www.w3.org/2000/svg" width="160" height="160">
<path d="M0 0 C33 0 66 0 100 0 C100 13.2 100 26.4 100 40 C67 40 34 40 0 40 C0 26.8 0 13.6 0 0 Z M10 10 C10 16.6 10 23.2 10 30 C36.4 30 62.8 30 90 30 C90 23.4 90 16.8 90 10 C86.7 10 83.4 10 80 10 C80 13.3 80 16.6 80 20 C76.7 20 73.4 20 70 20 C70 16.7 70 13.4 70 10 C50.2 10 30.4 10 10 10 Z " fill="#FFFFFF" transform="translate(30,110)"/>
<path d="M0 0 C3.3 0 6.6 0 10 0 C10 19.8 10 39.6 10 60 C13.3 60 16.6 60 20 60 C20 63.3 20 66.6 20 70 C16.7 70 13.4 70 10 70 C10 73.3 10 76.6 10 80 C6.7 80 3.4 80 0 80 C0 76.7 0 73.4 0 70 C-3.3 70 -6.6 70 -10 70 C-10 66.7 -10 63.4 -10 60 C-6.7 60 -3.4 60 0 60 C0 40.2 0 20.4 0 0 Z " fill="#FFFFFF" transform="translate(70,20)"/>
<path d="M0 0 C3.3 0 6.6 0 10 0 C10 3.3 10 6.6 10 10 C6.7 10 3.4 10 0 10 C0 6.7 0 3.4 0 0 Z " fill="#FFFFFF" transform="translate(90,70)"/>
<path d="M0 0 C3.3 0 6.6 0 10 0 C10 3.3 10 6.6 10 10 C6.7 10 3.4 10 0 10 C0 6.7 0 3.4 0 0 Z " fill="#FFFFFF" transform="translate(50,70)"/>
</svg>
