<?xml version="1.0" encoding="UTF-8"?>
<!-- Generator: visioncortex VTracer 0.6.4 -->
<svg version="1.1" xmlns="http://www.w3.org/2000/svg" width="160" height="160">
<path d="M0 0 C52.8 0 105.6 0 160 0 C160 52.8 160 105.6 160 160 C107.2 160 54.4 160 0 160 C0 107.2 0 54.4 0 0 Z " fill="#F7DF1D" transform="translate(0,0)"/>
<path d="M0 0 C9.9 0 19.8 0 30 0 C30 3.3 30 6.6 30 10 C23.4 10 16.8 10 10 10 C10 23.2 10 36.4 10 50 C16.6 50 23.2 50 30 50 C30 59.9 30 69.8 30 80 C20.1 80 10.2 80 0 80 C0 76.7 0 73.4 0 70 C6.6 70 13.2 70 20 70 C20 66.7 20 63.4 20 60 C13.4 60 6.8 60 0 60 C0 40.2 0 20.4 0 0 Z " fill="#000000" transform="translate(110,70)"/>
<path d="M0 0 C16.5 0 33 0 50 0 C50 3.3 50 6.6 50 10 C43.4 10 36.8 10 30 10 C30 33.1 30 56.2 30 80 C20.1 80 10.2 80 0 80 C0 76.7 0 73.4 0 70 C6.6 70 13.2 70 20 70 C20 50.2 20 30.4 20 10 C13.4 10 6.8 10 0 10 C0 6.7 0 3.4 0 0 Z " fill="#000000" transform="translate(50,70)"/>
<path d="M0 0 C3.3 0 6.6 0 10 0 C10 9.9 10 19.8 10 30 C6.7 30 3.4 30 0 30 C0 20.1 0 10.2 0 0 Z " fill="#000000" transform="translate(40,110)"/>
</svg>
