<?xml version="1.0" encoding="UTF-8"?>
<!-- Generator: visioncortex VTracer 0.6.4 -->
<svg version="1.1" xmlns="http://www.w3.org/2000/svg" width="160" height="160">
<path d="M0 0 C19.8 0 39.6 0 60 0 C60 3.3 60 6.6 60 10 C63.3 10 66.6 10 70 10 C70 13.3 70 16.6 70 20 C73.3 20 76.6 20 80 20 C80 39.8 80 59.6 80 80 C76.7 80 73.4 80 70 80 C70 83.3 70 86.6 70 90 C66.7 90 63.4 90 60 90 C60 93.3 60 96.6 60 100 C40.2 100 20.4 100 0 100 C0 96.7 0 93.4 0 90 C-3.3 90 -6.6 90 -10 90 C-10 86.7 -10 83.4 -10 80 C-13.3 80 -16.6 80 -20 80 C-20 60.2 -20 40.4 -20 20 C-16.7 20 -13.4 20 -10 20 C-10 16.7 -10 13.4 -10 10 C-6.7 10 -3.4 10 0 10 C0 6.7 0 3.4 0 0 Z M10 10 C10 13.3 10 16.6 10 20 C13.3 20 16.6 20 20 20 C20 16.7 20 13.4 20 10 C16.7 10 13.4 10 10 10 Z M30 10 C30 13.3 30 16.6 30 20 C33.3 20 36.6 20 40 20 C40 16.7 40 13.4 40 10 C36.7 10 33.4 10 30 10 Z M50 10 C50 13.3 50 16.6 50 20 C53.3 20 56.6 20 60 20 C60 16.7 60 13.4 60 10 C56.7 10 53.4 10 50 10 Z M-10 30 C-10 33.3 -10 36.6 -10 40 C-6.7 40 -3.4 40 0 40 C0 36.7 0 33.4 0 30 C-3.3 30 -6.6 30 -10 30 Z M10 30 C10 33.3 10 36.6 10 40 C13.3 40 16.6 40 20 40 C20 36.7 20 33.4 20 30 C16.7 30 13.4 30 10 30 Z M30 30 C30 33.3 30 36.6 30 40 C33.3 40 36.6 40 40 40 C40 36.7 40 33.4 40 30 C36.7 30 33.4 30 30 30 Z M50 30 C50 33.3 50 36.6 50 40 C53.3 40 56.6 40 60 40 C60 36.7 60 33.4 60 30 C56.7 30 53.4 30 50 30 Z M-10 50 C-10 53.3 -10 56.6 -10 60 C-6.7 60 -3.4 60 0 60 C0 56.7 0 53.4 0 50 C-3.3 50 -6.6 50 -10 50 Z M10 50 C10 53.3 10 56.6 10 60 C13.3 60 16.6 60 20 60 C20 56.7 20 53.4 20 50 C16.7 50 13.4 50 10 50 Z M30 50 C30 53.3 30 56.6 30 60 C33.3 60 36.6 60 40 60 C40 56.7 40 53.4 40 50 C36.7 50 33.4 50 30 50 Z M50 50 C50 53.3 50 56.6 50 60 C53.3 60 56.6 60 60 60 C60 56.7 60 53.4 60 50 C56.7 50 53.4 50 50 50 Z M-10 70 C-10 73.3 -10 76.6 -10 80 C-6.7 80 -3.4 80 0 80 C0 76.7 0 73.4 0 70 C-3.3 70 -6.6 70 -10 70 Z M10 70 C10 73.3 10 76.6 10 80 C13.3 80 16.6 80 20 80 C20 76.7 20 73.4 20 70 C16.7 70 13.4 70 10 70 Z M30 70 C30 73.3 30 76.6 30 80 C33.3 80 36.6 80 40 80 C40 76.7 40 73.4 40 70 C36.7 70 33.4 70 30 70 Z M50 70 C50 73.3 50 76.6 50 80 C53.3 80 56.6 80 60 80 C60 76.7 60 73.4 60 70 C56.7 70 53.4 70 50 70 Z " fill="#FFFFFF" transform="translate(50,60)"/>
<path d="M0 0 C6.6 0 13.2 0 20 0 C20 6.6 20 13.2 20 20 C16.7 20 13.4 20 10 20 C10 26.6 10 33.2 10 40 C6.7 40 3.4 40 0 40 C0 36.7 0 33.4 0 30 C-3.3 30 -6.6 30 -10 30 C-10 26.7 -10 23.4 -10 20 C-13.3 20 -16.6 20 -20 20 C-20 16.7 -20 13.4 -20 10 C-13.4 10 -6.8 10 0 10 C0 6.7 0 3.4 0 0 Z " fill="#FFFFFF" transform="translate(140,0)"/>
<path d="M0 0 C3.3 0 6.6 0 10 0 C10 3.3 10 6.6 10 10 C6.7 10 3.4 10 0 10 C0 6.7 0 3.4 0 0 Z " fill="#FFFFFF" transform="translate(110,40)"/>
<path d="M0 0 C3.3 0 6.6 0 10 0 C10 3.3 10 6.6 10 10 C6.7 10 3.4 10 0 10 C0 6.7 0 3.4 0 0 Z " fill="#FFFFFF" transform="translate(120,30)"/>
</svg>
