<?xml version="1.0" encoding="UTF-8"?>
<!-- Generator: visioncortex VTracer 0.6.4 -->
<svg version="1.1" xmlns="http://www.w3.org/2000/svg" width="160" height="160">
<path d="M0 0 C23.1 0 46.2 0 70 0 C70 49.5 70 99 70 150 C46.9 150 23.8 150 0 150 C0 100.5 0 51 0 0 Z M10 10 C10 52.9 10 95.8 10 140 C26.5 140 43 140 60 140 C60 97.1 60 54.2 60 10 C43.5 10 27 10 10 10 Z " fill="#FFFFFF" transform="translate(10,10)"/>
<path d="M0 0 C3.3 0 6.6 0 10 0 C10 3.3 10 6.6 10 10 C13.3 10 16.6 10 20 10 C20 13.3 20 16.6 20 20 C23.3 20 26.6 20 30 20 C30 23.3 30 26.6 30 30 C26.7 30 23.4 30 20 30 C20 33.3 20 36.6 20 40 C16.7 40 13.4 40 10 40 C10 43.3 10 46.6 10 50 C6.7 50 3.4 50 0 50 C0 43.4 0 36.8 0 30 C-9.9 30 -19.8 30 -30 30 C-30 26.7 -30 23.4 -30 20 C-20.1 20 -10.2 20 0 20 C0 13.4 0 6.8 0 0 Z " fill="#FFFFFF" transform="translate(120,40)"/>
<path d="M0 0 C3.3 0 6.6 0 10 0 C10 3.3 10 6.6 10 10 C6.7 10 3.4 10 0 10 C0 6.7 0 3.4 0 0 Z " fill="#FFFFFF" transform="translate(50,70)"/>
</svg>
