<?xml version="1.0" encoding="UTF-8"?>
<!-- Generator: visioncortex VTracer 0.6.4 -->
<svg version="1.1" xmlns="http://www.w3.org/2000/svg" width="160" height="160">
<path d="M0 0 C29.7 0 59.4 0 90 0 C90 42.9 90 85.8 90 130 C86.7 130 83.4 130 80 130 C80 126.7 80 123.4 80 120 C76.7 120 73.4 120 70 120 C70 123.3 70 126.6 70 130 C66.7 130 63.4 130 60 130 C60 126.7 60 123.4 60 120 C56.7 120 53.4 120 50 120 C50 123.3 50 126.6 50 130 C46.7 130 43.4 130 40 130 C40 126.7 40 123.4 40 120 C36.7 120 33.4 120 30 120 C30 123.3 30 126.6 30 130 C26.7 130 23.4 130 20 130 C20 126.7 20 123.4 20 120 C16.7 120 13.4 120 10 120 C10 123.3 10 126.6 10 130 C6.7 130 3.4 130 0 130 C0 87.1 0 44.2 0 0 Z " fill="#FFFFFF" transform="translate(30,0)"/>
</svg>
