<?xml version="1.0" encoding="UTF-8"?>
<!-- Generator: visioncortex VTracer 0.6.4 -->
<svg version="1.1" xmlns="http://www.w3.org/2000/svg" width="160" height="160">
<path d="M0 0 C13.2 0 26.4 0 40 0 C40 3.3 40 6.6 40 10 C43.3 10 46.6 10 50 10 C50 13.3 50 16.6 50 20 C53.3 20 56.6 20 60 20 C60 23.3 60 26.6 60 30 C63.3 30 66.6 30 70 30 C70 33.3 70 36.6 70 40 C73.3 40 76.6 40 80 40 C80 49.9 80 59.8 80 70 C76.7 70 73.4 70 70 70 C70 73.3 70 76.6 70 80 C66.7 80 63.4 80 60 80 C60 83.3 60 86.6 60 90 C56.7 90 53.4 90 50 90 C50 93.3 50 96.6 50 100 C46.7 100 43.4 100 40 100 C40 103.3 40 106.6 40 110 C26.8 110 13.6 110 0 110 C0 73.7 0 37.4 0 0 Z " fill="#FFFFFF" transform="translate(20,30)"/>
<path d="M0 0 C13.2 0 26.4 0 40 0 C40 3.3 40 6.6 40 10 C43.3 10 46.6 10 50 10 C50 13.3 50 16.6 50 20 C53.3 20 56.6 20 60 20 C60 23.3 60 26.6 60 30 C63.3 30 66.6 30 70 30 C70 33.3 70 36.6 70 40 C73.3 40 76.6 40 80 40 C80 49.9 80 59.8 80 70 C76.7 70 73.4 70 70 70 C70 73.3 70 76.6 70 80 C66.7 80 63.4 80 60 80 C60 83.3 60 86.6 60 90 C56.7 90 53.4 90 50 90 C50 93.3 50 96.6 50 100 C46.7 100 43.4 100 40 100 C40 103.3 40 106.6 40 110 C26.8 110 13.6 110 0 110 C0 73.7 0 37.4 0 0 Z M10 10 C10 39.7 10 69.4 10 100 C16.6 100 23.2 100 30 100 C30 96.7 30 93.4 30 90 C33.3 90 36.6 90 40 90 C40 86.7 40 83.4 40 80 C43.3 80 46.6 80 50 80 C50 76.7 50 73.4 50 70 C53.3 70 56.6 70 60 70 C60 66.7 60 63.4 60 60 C63.3 60 66.6 60 70 60 C70 56.7 70 53.4 70 50 C66.7 50 63.4 50 60 50 C60 46.7 60 43.4 60 40 C56.7 40 53.4 40 50 40 C50 36.7 50 33.4 50 30 C46.7 30 43.4 30 40 30 C40 26.7 40 23.4 40 20 C36.7 20 33.4 20 30 20 C30 16.7 30 13.4 30 10 C23.4 10 16.8 10 10 10 Z " fill="#000000" transform="translate(20,30)"/>
</svg>
