<?xml version="1.0" encoding="UTF-8"?>
<!-- Generator: visioncortex VTracer 0.6.4 -->
<svg version="1.1" xmlns="http://www.w3.org/2000/svg" width="160" height="160">
<path d="M0 0 C13.2 0 26.4 0 40 0 C40 36.3 40 72.6 40 110 C26.8 110 13.6 110 0 110 C0 106.7 0 103.4 0 100 C-3.3 100 -6.6 100 -10 100 C-10 96.7 -10 93.4 -10 90 C-13.3 90 -16.6 90 -20 90 C-20 86.7 -20 83.4 -20 80 C-23.3 80 -26.6 80 -30 80 C-30 76.7 -30 73.4 -30 70 C-33.3 70 -36.6 70 -40 70 C-40 60.1 -40 50.2 -40 40 C-36.7 40 -33.4 40 -30 40 C-30 36.7 -30 33.4 -30 30 C-26.7 30 -23.4 30 -20 30 C-20 26.7 -20 23.4 -20 20 C-16.7 20 -13.4 20 -10 20 C-10 16.7 -10 13.4 -10 10 C-6.7 10 -3.4 10 0 10 C0 6.7 0 3.4 0 0 Z " fill="#FFFFFF" transform="translate(60,20)"/>
<path d="M0 0 C13.2 0 26.4 0 40 0 C40 36.3 40 72.6 40 110 C26.8 110 13.6 110 0 110 C0 106.7 0 103.4 0 100 C-3.3 100 -6.6 100 -10 100 C-10 96.7 -10 93.4 -10 90 C-13.3 90 -16.6 90 -20 90 C-20 86.7 -20 83.4 -20 80 C-23.3 80 -26.6 80 -30 80 C-30 76.7 -30 73.4 -30 70 C-33.3 70 -36.6 70 -40 70 C-40 60.1 -40 50.2 -40 40 C-36.7 40 -33.4 40 -30 40 C-30 36.7 -30 33.4 -30 30 C-26.7 30 -23.4 30 -20 30 C-20 26.7 -20 23.4 -20 20 C-16.7 20 -13.4 20 -10 20 C-10 16.7 -10 13.4 -10 10 C-6.7 10 -3.4 10 0 10 C0 6.7 0 3.4 0 0 Z M10 10 C10 13.3 10 16.6 10 20 C6.7 20 3.4 20 0 20 C0 23.3 0 26.6 0 30 C-3.3 30 -6.6 30 -10 30 C-10 33.3 -10 36.6 -10 40 C-13.3 40 -16.6 40 -20 40 C-20 43.3 -20 46.6 -20 50 C-23.3 50 -26.6 50 -30 50 C-30 53.3 -30 56.6 -30 60 C-26.7 60 -23.4 60 -20 60 C-20 63.3 -20 66.6 -20 70 C-16.7 70 -13.4 70 -10 70 C-10 73.3 -10 76.6 -10 80 C-6.7 80 -3.4 80 0 80 C0 83.3 0 86.6 0 90 C3.3 90 6.6 90 10 90 C10 93.3 10 96.6 10 100 C16.6 100 23.2 100 30 100 C30 70.3 30 40.6 30 10 C23.4 10 16.8 10 10 10 Z " fill="#000000" transform="translate(60,20)"/>
</svg>
