<?xml version="1.0" encoding="UTF-8"?>
<!-- Generator: visioncortex VTracer 0.6.4 -->
<svg version="1.1" xmlns="http://www.w3.org/2000/svg" width="160" height="160">
<path d="M0 0 C3.3 0 6.6 0 10 0 C10 6.6 10 13.2 10 20 C13.3 20 16.6 20 20 20 C20 23.3 20 26.6 20 30 C23.3 30 26.6 30 30 30 C30 33.3 30 36.6 30 40 C33.3 40 36.6 40 40 40 C40 46.6 40 53.2 40 60 C43.3 60 46.6 60 50 60 C50 69.9 50 79.8 50 90 C40.1 90 30.2 90 20 90 C20 86.7 20 83.4 20 80 C16.7 80 13.4 80 10 80 C10 76.7 10 73.4 10 70 C6.7 70 3.4 70 0 70 C0 66.7 0 63.4 0 60 C-3.3 60 -6.6 60 -10 60 C-10 56.7 -10 53.4 -10 50 C-13.3 50 -16.6 50 -20 50 C-20 43.4 -20 36.8 -20 30 C-26.6 30 -33.2 30 -40 30 C-40 26.7 -40 23.4 -40 20 C-30.1 20 -20.2 20 -10 20 C-10 16.7 -10 13.4 -10 10 C-6.7 10 -3.4 10 0 10 C0 6.7 0 3.4 0 0 Z " fill="#FAFAFA" transform="translate(100,60)"/>
<path d="M0 0 C16.5 0 33 0 50 0 C50 3.3 50 6.6 50 10 C33.5 10 17 10 0 10 C0 6.7 0 3.4 0 0 Z " fill="#FAFAFA" transform="translate(50,0)"/>
<path d="M0 0 C3.3 0 6.6 0 10 0 C10 13.2 10 26.4 10 40 C6.7 40 3.4 40 0 40 C0 26.8 0 13.6 0 0 Z " fill="#FAFAFA" transform="translate(110,20)"/>
<path d="M0 0 C3.3 0 6.6 0 10 0 C10 13.2 10 26.4 10 40 C6.7 40 3.4 40 0 40 C0 26.8 0 13.6 0 0 Z " fill="#FAFAFA" transform="translate(30,20)"/>
<path d="M0 0 C3.3 0 6.6 0 10 0 C10 3.3 10 6.6 10 10 C6.7 10 3.4 10 0 10 C0 6.7 0 3.4 0 0 Z " fill="#FAFAFA" transform="translate(50,70)"/>
<path d="M0 0 C3.3 0 6.6 0 10 0 C10 3.3 10 6.6 10 10 C6.7 10 3.4 10 0 10 C0 6.7 0 3.4 0 0 Z " fill="#FAFAFA" transform="translate(70,60)"/>
<path d="M0 0 C3.3 0 6.6 0 10 0 C10 3.3 10 6.6 10 10 C6.7 10 3.4 10 0 10 C0 6.7 0 3.4 0 0 Z " fill="#FAFAFA" transform="translate(40,60)"/>
<path d="M0 0 C3.3 0 6.6 0 10 0 C10 3.3 10 6.6 10 10 C6.7 10 3.4 10 0 10 C0 6.7 0 3.4 0 0 Z " fill="#FAFAFA" transform="translate(60,50)"/>
<path d="M0 0 C3.3 0 6.6 0 10 0 C10 3.3 10 6.6 10 10 C6.7 10 3.4 10 0 10 C0 6.7 0 3.4 0 0 Z " fill="#FAFAFA" transform="translate(50,40)"/>
<path d="M0 0 C3.3 0 6.6 0 10 0 C10 3.3 10 6.6 10 10 C6.7 10 3.4 10 0 10 C0 6.7 0 3.4 0 0 Z " fill="#FAFAFA" transform="translate(90,30)"/>
<path d="M0 0 C3.3 0 6.6 0 10 0 C10 3.3 10 6.6 10 10 C6.7 10 3.4 10 0 10 C0 6.7 0 3.4 0 0 Z " fill="#FAFAFA" transform="translate(80,20)"/>
<path d="M0 0 C3.3 0 6.6 0 10 0 C10 3.3 10 6.6 10 10 C6.7 10 3.4 10 0 10 C0 6.7 0 3.4 0 0 Z " fill="#FAFAFA" transform="translate(100,10)"/>
<path d="M0 0 C3.3 0 6.6 0 10 0 C10 3.3 10 6.6 10 10 C6.7 10 3.4 10 0 10 C0 6.7 0 3.4 0 0 Z " fill="#FAFAFA" transform="translate(40,10)"/>
</svg>
