<?xml version="1.0" encoding="UTF-8"?>
<!-- Generator: visioncortex VTracer 0.6.4 -->
<svg version="1.1" xmlns="http://www.w3.org/2000/svg" width="160" height="160">
<path d="M0 0 C9.9 0 19.8 0 30 0 C30 3.3 30 6.6 30 10 C33.3 10 36.6 10 40 10 C40 52.9 40 95.8 40 140 C20.2 140 0.4 140 -20 140 C-20 143.3 -20 146.6 -20 150 C-46.4 150 -72.8 150 -100 150 C-100 146.7 -100 143.4 -100 140 C-103.3 140 -106.6 140 -110 140 C-110 133.4 -110 126.8 -110 120 C-106.7 120 -103.4 120 -100 120 C-100 116.7 -100 113.4 -100 110 C-103.3 110 -106.6 110 -110 110 C-110 103.4 -110 96.8 -110 90 C-106.7 90 -103.4 90 -100 90 C-100 86.7 -100 83.4 -100 80 C-103.3 80 -106.6 80 -110 80 C-110 73.4 -110 66.8 -110 60 C-106.7 60 -103.4 60 -100 60 C-100 56.7 -100 53.4 -100 50 C-73.6 50 -47.2 50 -20 50 C-20 53.3 -20 56.6 -20 60 C-16.7 60 -13.4 60 -10 60 C-10 63.3 -10 66.6 -10 70 C-3.4 70 3.2 70 10 70 C10 63.4 10 56.8 10 50 C6.7 50 3.4 50 0 50 C0 46.7 0 43.4 0 40 C-3.3 40 -6.6 40 -10 40 C-10 30.1 -10 20.2 -10 10 C-6.7 10 -3.4 10 0 10 C0 6.7 0 3.4 0 0 Z M20 50 C20 59.9 20 69.8 20 80 C6.8 80 -6.4 80 -20 80 C-20 83.3 -20 86.6 -20 90 C-16.7 90 -13.4 90 -10 90 C-10 93.3 -10 96.6 -10 100 C3.2 100 16.4 100 30 100 C30 83.5 30 67 30 50 C26.7 50 23.4 50 20 50 Z M-20 110 C-20 113.3 -20 116.6 -20 120 C-16.7 120 -13.4 120 -10 120 C-10 123.3 -10 126.6 -10 130 C3.2 130 16.4 130 30 130 C30 123.4 30 116.8 30 110 C13.5 110 -3 110 -20 110 Z " fill="#8AF778" transform="translate(120,10)"/>
<path d="M0 0 C9.9 0 19.8 0 30 0 C30 3.3 30 6.6 30 10 C33.3 10 36.6 10 40 10 C40 19.9 40 29.8 40 40 C36.7 40 33.4 40 30 40 C30 43.3 30 46.6 30 50 C26.7 50 23.4 50 20 50 C20 59.9 20 69.8 20 80 C6.8 80 -6.4 80 -20 80 C-20 83.3 -20 86.6 -20 90 C-23.3 90 -26.6 90 -30 90 C-30 93.3 -30 96.6 -30 100 C-33.3 100 -36.6 100 -40 100 C-40 96.7 -40 93.4 -40 90 C-59.8 90 -79.6 90 -100 90 C-100 86.7 -100 83.4 -100 80 C-103.3 80 -106.6 80 -110 80 C-110 73.4 -110 66.8 -110 60 C-106.7 60 -103.4 60 -100 60 C-100 56.7 -100 53.4 -100 50 C-73.6 50 -47.2 50 -20 50 C-20 53.3 -20 56.6 -20 60 C-16.7 60 -13.4 60 -10 60 C-10 63.3 -10 66.6 -10 70 C-3.4 70 3.2 70 10 70 C10 63.4 10 56.8 10 50 C6.7 50 3.4 50 0 50 C0 46.7 0 43.4 0 40 C-3.3 40 -6.6 40 -10 40 C-10 30.1 -10 20.2 -10 10 C-6.7 10 -3.4 10 0 10 C0 6.7 0 3.4 0 0 Z " fill="#FFFFFF" transform="translate(120,10)"/>
<path d="M0 0 C26.4 0 52.8 0 80 0 C80 13.2 80 26.4 80 40 C53.6 40 27.2 40 0 40 C0 36.7 0 33.4 0 30 C-3.3 30 -6.6 30 -10 30 C-10 23.4 -10 16.8 -10 10 C-6.7 10 -3.4 10 0 10 C0 6.7 0 3.4 0 0 Z " fill="#FFFFFF" transform="translate(20,120)"/>
<path d="M0 0 C9.9 0 19.8 0 30 0 C30 3.3 30 6.6 30 10 C33.3 10 36.6 10 40 10 C40 19.9 40 29.8 40 40 C36.7 40 33.4 40 30 40 C30 43.3 30 46.6 30 50 C26.7 50 23.4 50 20 50 C20 59.9 20 69.8 20 80 C6.8 80 -6.4 80 -20 80 C-20 73.4 -20 66.8 -20 60 C-16.7 60 -13.4 60 -10 60 C-10 63.3 -10 66.6 -10 70 C-3.4 70 3.2 70 10 70 C10 63.4 10 56.8 10 50 C6.7 50 3.4 50 0 50 C0 46.7 0 43.4 0 40 C-3.3 40 -6.6 40 -10 40 C-10 30.1 -10 20.2 -10 10 C-6.7 10 -3.4 10 0 10 C0 6.7 0 3.4 0 0 Z " fill="#FF0000" transform="translate(120,10)"/>
<path d="M0 0 C23.1 0 46.2 0 70 0 C70 3.3 70 6.6 70 10 C73.3 10 76.6 10 80 10 C80 6.7 80 3.4 80 0 C83.3 0 86.6 0 90 0 C90 6.6 90 13.2 90 20 C60.3 20 30.6 20 0 20 C0 13.4 0 6.8 0 0 Z " fill="#FFFFFF" transform="translate(10,100)"/>
<path d="M0 0 C26.4 0 52.8 0 80 0 C80 3.3 80 6.6 80 10 C76.7 10 73.4 10 70 10 C70 13.3 70 16.6 70 20 C66.7 20 63.4 20 60 20 C60 16.7 60 13.4 60 10 C40.2 10 20.4 10 0 10 C0 6.7 0 3.4 0 0 Z " fill="#000000" transform="translate(20,120)"/>
<path d="M0 0 C26.4 0 52.8 0 80 0 C80 3.3 80 6.6 80 10 C76.7 10 73.4 10 70 10 C70 13.3 70 16.6 70 20 C66.7 20 63.4 20 60 20 C60 16.7 60 13.4 60 10 C40.2 10 20.4 10 0 10 C0 6.7 0 3.4 0 0 Z " fill="#000000" transform="translate(20,90)"/>
<path d="M0 0 C26.4 0 52.8 0 80 0 C80 3.3 80 6.6 80 10 C76.7 10 73.4 10 70 10 C70 13.3 70 16.6 70 20 C66.7 20 63.4 20 60 20 C60 16.7 60 13.4 60 10 C40.2 10 20.4 10 0 10 C0 6.7 0 3.4 0 0 Z " fill="#000000" transform="translate(20,60)"/>
<path d="M0 0 C26.4 0 52.8 0 80 0 C80 3.3 80 6.6 80 10 C53.6 10 27.2 10 0 10 C0 6.7 0 3.4 0 0 Z " fill="#000000" transform="translate(20,150)"/>
<path d="M0 0 C3.3 0 6.6 0 10 0 C10 9.9 10 19.8 10 30 C-3.2 30 -16.4 30 -30 30 C-30 23.4 -30 16.8 -30 10 C-26.7 10 -23.4 10 -20 10 C-20 13.3 -20 16.6 -20 20 C-13.4 20 -6.8 20 0 20 C0 13.4 0 6.8 0 0 Z " fill="#8AF778" transform="translate(130,60)"/>
<path d="M0 0 C9.9 0 19.8 0 30 0 C30 6.6 30 13.2 30 20 C26.7 20 23.4 20 20 20 C20 23.3 20 26.6 20 30 C16.7 30 13.4 30 10 30 C10 26.7 10 23.4 10 20 C6.7 20 3.4 20 0 20 C0 13.4 0 6.8 0 0 Z " fill="#FF0000" transform="translate(120,10)"/>
<path d="M0 0 C3.3 0 6.6 0 10 0 C10 3.3 10 6.6 10 10 C13.3 10 16.6 10 20 10 C20 13.3 20 16.6 20 20 C10.1 20 0.2 20 -10 20 C-10 16.7 -10 13.4 -10 10 C-6.7 10 -3.4 10 0 10 C0 6.7 0 3.4 0 0 Z " fill="#FF0000" transform="translate(130,40)"/>
<path d="M0 0 C3.3 0 6.6 0 10 0 C10 6.6 10 13.2 10 20 C6.7 20 3.4 20 0 20 C0 13.4 0 6.8 0 0 Z " fill="#000000" transform="translate(100,130)"/>
<path d="M0 0 C3.3 0 6.6 0 10 0 C10 6.6 10 13.2 10 20 C6.7 20 3.4 20 0 20 C0 13.4 0 6.8 0 0 Z " fill="#000000" transform="translate(10,130)"/>
<path d="M0 0 C3.3 0 6.6 0 10 0 C10 6.6 10 13.2 10 20 C6.7 20 3.4 20 0 20 C0 13.4 0 6.8 0 0 Z " fill="#000000" transform="translate(100,100)"/>
<path d="M0 0 C3.3 0 6.6 0 10 0 C10 6.6 10 13.2 10 20 C6.7 20 3.4 20 0 20 C0 13.4 0 6.8 0 0 Z " fill="#000000" transform="translate(10,100)"/>
<path d="M0 0 C3.3 0 6.6 0 10 0 C10 6.6 10 13.2 10 20 C6.7 20 3.4 20 0 20 C0 13.4 0 6.8 0 0 Z " fill="#000000" transform="translate(100,70)"/>
<path d="M0 0 C3.3 0 6.6 0 10 0 C10 6.6 10 13.2 10 20 C6.7 20 3.4 20 0 20 C0 13.4 0 6.8 0 0 Z " fill="#000000" transform="translate(10,70)"/>
<path d="M0 0 C3.3 0 6.6 0 10 0 C10 3.3 10 6.6 10 10 C6.7 10 3.4 10 0 10 C0 6.7 0 3.4 0 0 Z " fill="#5B5151" transform="translate(80,130)"/>
<path d="M0 0 C3.3 0 6.6 0 10 0 C10 3.3 10 6.6 10 10 C6.7 10 3.4 10 0 10 C0 6.7 0 3.4 0 0 Z " fill="#5B5151" transform="translate(80,100)"/>
<path d="M0 0 C3.3 0 6.6 0 10 0 C10 3.3 10 6.6 10 10 C6.7 10 3.4 10 0 10 C0 6.7 0 3.4 0 0 Z " fill="#5B5151" transform="translate(80,70)"/>
<path d="M0 0 C3.3 0 6.6 0 10 0 C10 3.3 10 6.6 10 10 C6.7 10 3.4 10 0 10 C0 6.7 0 3.4 0 0 Z " fill="#FFFFFF" transform="translate(140,40)"/>
<path d="M0 0 C3.3 0 6.6 0 10 0 C10 3.3 10 6.6 10 10 C6.7 10 3.4 10 0 10 C0 6.7 0 3.4 0 0 Z " fill="#FFFFFF" transform="translate(120,40)"/>
<path d="M0 0 C3.3 0 6.6 0 10 0 C10 3.3 10 6.6 10 10 C6.7 10 3.4 10 0 10 C0 6.7 0 3.4 0 0 Z " fill="#FFFFFF" transform="translate(130,30)"/>
<path d="M0 0 C3.3 0 6.6 0 10 0 C10 3.3 10 6.6 10 10 C6.7 10 3.4 10 0 10 C0 6.7 0 3.4 0 0 Z " fill="#FFFFFF" transform="translate(140,20)"/>
<path d="M0 0 C3.3 0 6.6 0 10 0 C10 3.3 10 6.6 10 10 C6.7 10 3.4 10 0 10 C0 6.7 0 3.4 0 0 Z " fill="#FFFFFF" transform="translate(120,20)"/>
</svg>
