<svg id="svg" version="1.1" xmlns="http://www.w3.org/2000/svg" xmlns:xlink="http://www.w3.org/1999/xlink" width="400" height="400" viewBox="0, 0, 400,400"><g id="svgg"><path id="path0" d="M225.070 75.464 C 224.921 75.612,224.800 81.191,224.800 87.861 L 224.800 99.988 212.500 100.094 L 200.200 100.200 200.094 112.494 L 199.988 124.788 187.694 124.894 L 175.400 125.000 175.294 137.294 L 175.188 149.589 162.494 149.694 L 149.800 149.800 149.694 162.494 L 149.589 175.188 137.294 175.294 L 125.000 175.400 125.000 212.400 L 125.000 249.400 174.900 249.502 L 224.800 249.603 224.800 262.396 L 224.800 275.188 212.500 275.294 L 200.200 275.400 200.094 287.694 L 199.988 299.988 187.694 300.094 L 175.400 300.200 175.294 312.494 L 175.188 324.789 162.494 324.894 L 149.800 325.000 149.800 350.000 L 149.800 375.000 174.800 375.000 L 199.800 375.000 199.906 362.306 L 200.011 349.612 212.306 349.506 L 224.600 349.400 224.706 337.106 L 224.812 324.812 237.106 324.706 L 249.400 324.600 249.506 312.306 L 249.612 300.011 262.306 299.906 L 275.000 299.800 275.000 262.400 L 275.000 225.000 225.100 224.898 L 175.200 224.797 175.200 212.404 L 175.200 200.012 187.500 199.906 L 199.800 199.800 199.906 187.506 L 200.012 175.212 212.306 175.106 L 224.600 175.000 224.706 162.306 L 224.811 149.612 237.106 149.506 L 249.400 149.400 249.506 137.106 L 249.612 124.811 262.306 124.706 L 275.000 124.600 275.000 100.000 L 275.000 75.400 250.170 75.297 C 236.513 75.240,225.218 75.315,225.070 75.464 " stroke="none" fill="#fcfcfc" fill-rule="evenodd"></path><path id="path1" d="M24.400 12.200 L 24.400 24.400 12.200 24.400 L 0.000 24.400 0.000 200.000 L 0.000 375.600 12.200 375.600 L 24.400 375.600 24.400 387.800 L 24.400 400.000 200.000 400.000 L 375.600 400.000 375.600 387.800 L 375.600 375.600 387.800 375.600 L 400.000 375.600 400.000 200.000 L 400.000 24.400 387.800 24.400 L 375.600 24.400 375.600 12.200 L 375.600 0.000 200.000 0.000 L 24.400 0.000 24.400 12.200 M275.120 75.280 C 275.813 75.973,275.813 124.027,275.120 124.720 C 274.767 125.073,271.369 125.200,262.320 125.200 L 250.000 125.200 250.000 137.120 C 250.000 145.858,249.872 149.168,249.520 149.520 C 249.168 149.872,245.858 150.000,237.120 150.000 L 225.200 150.000 225.200 162.320 C 225.200 171.369,225.073 174.767,224.720 175.120 C 224.368 175.472,221.058 175.600,212.320 175.600 L 200.400 175.600 200.400 187.520 C 200.400 196.258,200.272 199.568,199.920 199.920 C 199.568 200.272,196.258 200.400,187.520 200.400 L 175.600 200.400 175.600 212.400 L 175.600 224.400 225.120 224.400 C 263.102 224.400,274.752 224.512,275.120 224.880 C 275.816 225.576,275.816 299.224,275.120 299.920 C 274.767 300.273,271.369 300.400,262.320 300.400 L 250.000 300.400 250.000 312.320 C 250.000 321.058,249.872 324.368,249.520 324.720 C 249.168 325.072,245.858 325.200,237.120 325.200 L 225.200 325.200 225.200 337.120 C 225.200 345.858,225.072 349.168,224.720 349.520 C 224.368 349.872,221.058 350.000,212.320 350.000 L 200.400 350.000 200.400 362.320 C 200.400 371.369,200.273 374.767,199.920 375.120 C 199.227 375.813,150.373 375.813,149.680 375.120 C 148.987 374.427,148.987 325.573,149.680 324.880 C 150.033 324.527,153.431 324.400,162.480 324.400 L 174.800 324.400 174.800 312.480 C 174.800 303.742,174.928 300.432,175.280 300.080 C 175.632 299.728,178.942 299.600,187.680 299.600 L 199.600 299.600 199.600 287.680 C 199.600 278.942,199.728 275.632,200.080 275.280 C 200.432 274.928,203.742 274.800,212.480 274.800 L 224.400 274.800 224.400 262.400 L 224.400 250.000 174.880 250.000 C 136.898 250.000,125.248 249.888,124.880 249.520 C 124.184 248.824,124.184 175.976,124.880 175.280 C 125.232 174.928,128.542 174.800,137.280 174.800 L 149.200 174.800 149.200 162.480 C 149.200 153.431,149.327 150.033,149.680 149.680 C 150.033 149.327,153.431 149.200,162.480 149.200 L 174.800 149.200 174.800 137.280 C 174.800 128.542,174.928 125.232,175.280 124.880 C 175.632 124.528,178.942 124.400,187.680 124.400 L 199.600 124.400 199.600 112.480 C 199.600 103.742,199.728 100.432,200.080 100.080 C 200.432 99.728,203.742 99.600,212.480 99.600 L 224.400 99.600 224.400 87.680 C 224.400 78.942,224.528 75.632,224.880 75.280 C 225.573 74.587,274.427 74.587,275.120 75.280 " stroke="none" fill="#148cfc" fill-rule="evenodd"></path><path id="path2" d="" stroke="none" fill="#100c4fc" fill-rule="evenodd"></path><path id="path3" d="M224.880 75.280 C 224.528 75.632,224.400 78.942,224.400 87.680 L 224.400 99.600 212.480 99.600 C 203.742 99.600,200.432 99.728,200.080 100.080 C 199.728 100.432,199.600 103.742,199.600 112.480 L 199.600 124.400 187.680 124.400 C 178.942 124.400,175.632 124.528,175.280 124.880 C 174.928 125.232,174.800 128.542,174.800 137.280 L 174.800 149.200 162.480 149.200 C 153.431 149.200,150.033 149.327,149.680 149.680 C 149.327 150.033,149.200 153.431,149.200 162.480 L 149.200 174.800 137.280 174.800 C 128.542 174.800,125.232 174.928,124.880 175.280 C 124.184 175.976,124.184 248.824,124.880 249.520 C 125.248 249.888,136.898 250.000,174.880 250.000 L 224.400 250.000 224.400 262.400 L 224.400 274.800 212.480 274.800 C 203.742 274.800,200.432 274.928,200.080 275.280 C 199.728 275.632,199.600 278.942,199.600 287.680 L 199.600 299.600 187.680 299.600 C 178.942 299.600,175.632 299.728,175.280 300.080 C 174.928 300.432,174.800 303.742,174.800 312.480 L 174.800 324.400 162.480 324.400 C 153.431 324.400,150.033 324.527,149.680 324.880 C 148.987 325.573,148.987 374.427,149.680 375.120 C 150.373 375.813,199.227 375.813,199.920 375.120 C 200.273 374.767,200.400 371.369,200.400 362.320 L 200.400 350.000 212.320 350.000 C 221.058 350.000,224.368 349.872,224.720 349.520 C 225.072 349.168,225.200 345.858,225.200 337.120 L 225.200 325.200 237.120 325.200 C 245.858 325.200,249.168 325.072,249.520 324.720 C 249.872 324.368,250.000 321.058,250.000 312.320 L 250.000 300.400 262.320 300.400 C 271.369 300.400,274.767 300.273,275.120 299.920 C 275.816 299.224,275.816 225.576,275.120 224.880 C 274.752 224.512,263.102 224.400,225.120 224.400 L 175.600 224.400 175.600 212.400 L 175.600 200.400 187.520 200.400 C 196.258 200.400,199.568 200.272,199.920 199.920 C 200.272 199.568,200.400 196.258,200.400 187.520 L 200.400 175.600 212.320 175.600 C 221.058 175.600,224.368 175.472,224.720 175.120 C 225.073 174.767,225.200 171.369,225.200 162.320 L 225.200 150.000 237.120 150.000 C 245.858 150.000,249.168 149.872,249.520 149.520 C 249.872 149.168,250.000 145.858,250.000 137.120 L 250.000 125.200 262.320 125.200 C 271.369 125.200,274.767 125.073,275.120 124.720 C 275.813 124.027,275.813 75.973,275.120 75.280 C 274.427 74.587,225.573 74.587,224.880 75.280 M275.000 100.000 L 275.000 124.600 262.306 124.706 L 249.612 124.811 249.506 137.106 L 249.400 149.400 237.106 149.506 L 224.811 149.612 224.706 162.306 L 224.600 175.000 212.306 175.106 L 200.012 175.212 199.906 187.506 L 199.800 199.800 187.500 199.906 L 175.200 200.012 175.200 212.404 L 175.200 224.797 225.100 224.898 L 275.000 225.000 275.000 262.400 L 275.000 299.800 262.306 299.906 L 249.612 300.011 249.506 312.306 L 249.400 324.600 237.106 324.706 L 224.812 324.812 224.706 337.106 L 224.600 349.400 212.306 349.506 L 200.011 349.612 199.906 362.306 L 199.800 375.000 174.800 375.000 L 149.800 375.000 149.800 350.000 L 149.800 325.000 162.494 324.894 L 175.188 324.789 175.294 312.494 L 175.400 300.200 187.694 300.094 L 199.988 299.988 200.094 287.694 L 200.200 275.400 212.500 275.294 L 224.800 275.188 224.800 262.396 L 224.800 249.603 174.900 249.502 L 125.000 249.400 125.000 212.400 L 125.000 175.400 137.294 175.294 L 149.589 175.188 149.694 162.494 L 149.800 149.800 162.494 149.694 L 175.188 149.589 175.294 137.294 L 175.400 125.000 187.694 124.894 L 199.988 124.788 200.094 112.494 L 200.200 100.200 212.500 100.094 L 224.800 99.988 224.800 87.861 C 224.800 81.191,224.921 75.612,225.070 75.464 C 225.218 75.315,236.513 75.240,250.170 75.297 L 275.000 75.400 275.000 100.000 " stroke="none" fill="#50c4fc" fill-rule="evenodd"></path><path id="path4" d="" stroke="none" fill="#14c8fc" fill-rule="evenodd"></path></g></svg>