<?xml version="1.0" encoding="UTF-8"?>
<!-- Generator: visioncortex VTracer 0.6.4 -->
<svg version="1.1" xmlns="http://www.w3.org/2000/svg" width="160" height="160">
<path d="M0 0 C16.5 0 33 0 50 0 C50 3.3 50 6.6 50 10 C53.3 10 56.6 10 60 10 C60 23.2 60 36.4 60 50 C56.7 50 53.4 50 50 50 C50 53.3 50 56.6 50 60 C46.7 60 43.4 60 40 60 C40 66.6 40 73.2 40 80 C43.3 80 46.6 80 50 80 C50 83.3 50 86.6 50 90 C53.3 90 56.6 90 60 90 C60 96.6 60 103.2 60 110 C63.3 110 66.6 110 70 110 C70 116.6 70 123.2 70 130 C40.3 130 10.6 130 -20 130 C-20 123.4 -20 116.8 -20 110 C-16.7 110 -13.4 110 -10 110 C-10 103.4 -10 96.8 -10 90 C-6.7 90 -3.4 90 0 90 C0 86.7 0 83.4 0 80 C3.3 80 6.6 80 10 80 C10 73.4 10 66.8 10 60 C6.7 60 3.4 60 0 60 C0 56.7 0 53.4 0 50 C-3.3 50 -6.6 50 -10 50 C-10 36.8 -10 23.6 -10 10 C-6.7 10 -3.4 10 0 10 C0 6.7 0 3.4 0 0 Z M0 10 C0 13.3 0 16.6 0 20 C3.3 20 6.6 20 10 20 C10 16.7 10 13.4 10 10 C6.7 10 3.4 10 0 10 Z M40 10 C40 13.3 40 16.6 40 20 C43.3 20 46.6 20 50 20 C50 16.7 50 13.4 50 10 C46.7 10 43.4 10 40 10 Z M10 30 C10 33.3 10 36.6 10 40 C13.3 40 16.6 40 20 40 C20 36.7 20 33.4 20 30 C16.7 30 13.4 30 10 30 Z M30 30 C30 33.3 30 36.6 30 40 C33.3 40 36.6 40 40 40 C40 36.7 40 33.4 40 30 C36.7 30 33.4 30 30 30 Z M20 40 C20 43.3 20 46.6 20 50 C23.3 50 26.6 50 30 50 C30 46.7 30 43.4 30 40 C26.7 40 23.4 40 20 40 Z " fill="#FFFFFF" transform="translate(60,30)"/>
</svg>
