<?xml version="1.0" encoding="UTF-8"?>
<!-- Generator: visioncortex VTracer 0.6.4 -->
<svg version="1.1" xmlns="http://www.w3.org/2000/svg" width="160" height="160">
<path d="M0 0 C3.3 0 6.6 0 10 0 C10 3.3 10 6.6 10 10 C13.3 10 16.6 10 20 10 C20 13.3 20 16.6 20 20 C23.3 20 26.6 20 30 20 C30 23.3 30 26.6 30 30 C33.3 30 36.6 30 40 30 C40 33.3 40 36.6 40 40 C43.3 40 46.6 40 50 40 C50 43.3 50 46.6 50 50 C53.3 50 56.6 50 60 50 C60 53.3 60 56.6 60 60 C63.3 60 66.6 60 70 60 C70 63.3 70 66.6 70 70 C73.3 70 76.6 70 80 70 C80 89.8 80 109.6 80 130 C76.7 130 73.4 130 70 130 C70 133.3 70 136.6 70 140 C66.7 140 63.4 140 60 140 C60 143.3 60 146.6 60 150 C27 150 -6 150 -40 150 C-40 146.7 -40 143.4 -40 140 C-43.3 140 -46.6 140 -50 140 C-50 136.7 -50 133.4 -50 130 C-53.3 130 -56.6 130 -60 130 C-60 106.9 -60 83.8 -60 60 C-56.7 60 -53.4 60 -50 60 C-50 56.7 -50 53.4 -50 50 C-46.7 50 -43.4 50 -40 50 C-40 46.7 -40 43.4 -40 40 C-36.7 40 -33.4 40 -30 40 C-30 36.7 -30 33.4 -30 30 C-26.7 30 -23.4 30 -20 30 C-20 26.7 -20 23.4 -20 20 C-16.7 20 -13.4 20 -10 20 C-10 16.7 -10 13.4 -10 10 C-6.7 10 -3.4 10 0 10 C0 6.7 0 3.4 0 0 Z " fill="#DCC838" transform="translate(70,10)"/>
<path d="M0 0 C3.3 0 6.6 0 10 0 C10 19.8 10 39.6 10 60 C13.3 60 16.6 60 20 60 C20 63.3 20 66.6 20 70 C23.3 70 26.6 70 30 70 C30 73.3 30 76.6 30 80 C56.4 80 82.8 80 110 80 C110 76.7 110 73.4 110 70 C113.3 70 116.6 70 120 70 C120 66.7 120 63.4 120 60 C123.3 60 126.6 60 130 60 C130 43.5 130 27 130 10 C133.3 10 136.6 10 140 10 C140 29.8 140 49.6 140 70 C136.7 70 133.4 70 130 70 C130 73.3 130 76.6 130 80 C126.7 80 123.4 80 120 80 C120 83.3 120 86.6 120 90 C87 90 54 90 20 90 C20 86.7 20 83.4 20 80 C16.7 80 13.4 80 10 80 C10 76.7 10 73.4 10 70 C6.7 70 3.4 70 0 70 C0 46.9 0 23.8 0 0 Z " fill="#000000" transform="translate(10,70)"/>
<path d="M0 0 C3.3 0 6.6 0 10 0 C10 3.3 10 6.6 10 10 C13.3 10 16.6 10 20 10 C20 13.3 20 16.6 20 20 C23.3 20 26.6 20 30 20 C30 23.3 30 26.6 30 30 C26.7 30 23.4 30 20 30 C20 49.8 20 69.6 20 90 C10.1 90 0.2 90 -10 90 C-10 70.2 -10 50.4 -10 30 C-13.3 30 -16.6 30 -20 30 C-20 26.7 -20 23.4 -20 20 C-16.7 20 -13.4 20 -10 20 C-10 16.7 -10 13.4 -10 10 C-6.7 10 -3.4 10 0 10 C0 6.7 0 3.4 0 0 Z " fill="#000000" transform="translate(70,10)"/>
<path d="M0 0 C9.9 0 19.8 0 30 0 C30 9.9 30 19.8 30 30 C20.1 30 10.2 30 0 30 C0 20.1 0 10.2 0 0 Z " fill="#000000" transform="translate(60,110)"/>
<path d="M0 0 C3.3 0 6.6 0 10 0 C10 3.3 10 6.6 10 10 C13.3 10 16.6 10 20 10 C20 13.3 20 16.6 20 20 C23.3 20 26.6 20 30 20 C30 23.3 30 26.6 30 30 C13.5 30 -3 30 -20 30 C-20 26.7 -20 23.4 -20 20 C-16.7 20 -13.4 20 -10 20 C-10 16.7 -10 13.4 -10 10 C-6.7 10 -3.4 10 0 10 C0 6.7 0 3.4 0 0 Z " fill="#DCC838" transform="translate(70,10)"/>
<path d="M0 0 C3.3 0 6.6 0 10 0 C10 3.3 10 6.6 10 10 C6.7 10 3.4 10 0 10 C0 6.7 0 3.4 0 0 Z " fill="#000000" transform="translate(130,70)"/>
<path d="M0 0 C3.3 0 6.6 0 10 0 C10 3.3 10 6.6 10 10 C6.7 10 3.4 10 0 10 C0 6.7 0 3.4 0 0 Z " fill="#000000" transform="translate(120,60)"/>
<path d="M0 0 C3.3 0 6.6 0 10 0 C10 3.3 10 6.6 10 10 C6.7 10 3.4 10 0 10 C0 6.7 0 3.4 0 0 Z " fill="#000000" transform="translate(20,60)"/>
<path d="M0 0 C3.3 0 6.6 0 10 0 C10 3.3 10 6.6 10 10 C6.7 10 3.4 10 0 10 C0 6.7 0 3.4 0 0 Z " fill="#000000" transform="translate(110,50)"/>
<path d="M0 0 C3.3 0 6.6 0 10 0 C10 3.3 10 6.6 10 10 C6.7 10 3.4 10 0 10 C0 6.7 0 3.4 0 0 Z " fill="#000000" transform="translate(30,50)"/>
<path d="M0 0 C3.3 0 6.6 0 10 0 C10 3.3 10 6.6 10 10 C6.7 10 3.4 10 0 10 C0 6.7 0 3.4 0 0 Z " fill="#000000" transform="translate(100,40)"/>
<path d="M0 0 C3.3 0 6.6 0 10 0 C10 3.3 10 6.6 10 10 C6.7 10 3.4 10 0 10 C0 6.7 0 3.4 0 0 Z " fill="#000000" transform="translate(40,40)"/>
<path d="M0 0 C3.3 0 6.6 0 10 0 C10 3.3 10 6.6 10 10 C6.7 10 3.4 10 0 10 C0 6.7 0 3.4 0 0 Z " fill="#000000" transform="translate(90,30)"/>
<path d="M0 0 C3.3 0 6.6 0 10 0 C10 3.3 10 6.6 10 10 C6.7 10 3.4 10 0 10 C0 6.7 0 3.4 0 0 Z " fill="#000000" transform="translate(50,30)"/>
<path d="M0 0 C3.3 0 6.6 0 10 0 C10 3.3 10 6.6 10 10 C6.7 10 3.4 10 0 10 C0 6.7 0 3.4 0 0 Z " fill="#000000" transform="translate(80,20)"/>
<path d="M0 0 C3.3 0 6.6 0 10 0 C10 3.3 10 6.6 10 10 C6.7 10 3.4 10 0 10 C0 6.7 0 3.4 0 0 Z " fill="#000000" transform="translate(60,20)"/>
<path d="M0 0 C3.3 0 6.6 0 10 0 C10 3.3 10 6.6 10 10 C6.7 10 3.4 10 0 10 C0 6.7 0 3.4 0 0 Z " fill="#000000" transform="translate(70,10)"/>
</svg>
