<?xml version="1.0" encoding="UTF-8"?>
<!-- Generator: visioncortex VTracer 0.6.4 -->
<svg version="1.1" xmlns="http://www.w3.org/2000/svg" width="160" height="160">
<path d="M0 0 C39.6 0 79.2 0 120 0 C120 3.3 120 6.6 120 10 C123.3 10 126.6 10 130 10 C130 33.1 130 56.2 130 80 C126.7 80 123.4 80 120 80 C120 83.3 120 86.6 120 90 C80.4 90 40.8 90 0 90 C0 86.7 0 83.4 0 80 C-3.3 80 -6.6 80 -10 80 C-10 56.9 -10 33.8 -10 10 C-6.7 10 -3.4 10 0 10 C0 6.7 0 3.4 0 0 Z " fill="#F60000" transform="translate(20,40)"/>
<path d="M0 0 C6.6 0 13.2 0 20 0 C20 3.3 20 6.6 20 10 C23.3 10 26.6 10 30 10 C30 13.3 30 16.6 30 20 C33.3 20 36.6 20 40 20 C40 23.3 40 26.6 40 30 C36.7 30 33.4 30 30 30 C30 33.3 30 36.6 30 40 C26.7 40 23.4 40 20 40 C20 43.3 20 46.6 20 50 C13.4 50 6.8 50 0 50 C0 33.5 0 17 0 0 Z " fill="#FFFFFF" transform="translate(50,60)"/>
</svg>
